<svg xmlns="http://www.w3.org/2000/svg" viewBox="0 0 644.46 225.73"><defs><style>.cls-1{fill:#fff;fill-rule:evenodd;}</style></defs><title>Asset 1</title><g id="Layer_2" data-name="Layer 2"><g id="Camada_1" data-name="Camada 1"><path class="cls-1" d="M28.52,86.24A155,155,0,0,1,53.38,84.5c14.92,0,24.4,2.43,32,7.75,8.56,5.9,14.11,15.61,14.11,29.95,0,16-6,26.25-13.53,32.14-8.56,6.71-21.39,9.6-36.65,9.6a126.92,126.92,0,0,1-20.81-1.39V86.24Zm20.93,61.28a25.77,25.77,0,0,0,4.39.23c13.53.23,23.59-7.28,23.59-24.86,0-15.26-9.13-22.43-21.62-22.43a32.46,32.46,0,0,0-6.36.46Z"/><path class="cls-1" d="M143.68,164.28c-24.17,0-37.46-18.15-37.46-39.77,0-22.66,14.8-40.7,38.74-40.7,25.09,0,37.81,18.61,37.81,39.43,0,25.09-15,41-39,41Zm1-16.53c10.06,0,16-9.71,16-23.82,0-13.41-6-23.59-16.19-23.59S128.3,110.52,128.3,124c-.12,14,6.13,23.7,16.19,23.7Z"/><path class="cls-1" d="M251,160.93c-2.89,1.5-10.29,3.24-19.54,3.24-29.14,0-42-18.15-42-38.85,0-27.4,20.12-41.39,43.36-41.39,8.9,0,16.19,1.73,19.42,3.35l-4,16.53A37.55,37.55,0,0,0,233.75,101c-11.91,0-22.32,7.05-22.32,22.89,0,14.11,8.44,22.89,22.78,22.89a43.08,43.08,0,0,0,13.88-2.2Z"/><polygon class="cls-1" points="277.23 102.65 257.34 102.65 257.34 85.08 318.39 85.08 318.39 102.65 298.15 102.65 298.15 163.01 277.23 163.01 277.23 102.65"/><path class="cls-1" d="M347.64,85.08v44.28c0,11.79,4,18.38,12.26,18.38s12.37-6,12.37-18.38V85.08H393.2v43c0,24-12,36.19-33.88,36.19-21.27,0-32.6-11.68-32.6-36.65V85.08Z"/><path class="cls-1" d="M472.28,135c-.35-8.79-.46-19.19-.46-31.33h-.35c-2.43,10.29-5.67,22-8.21,30.52l-7.75,27.17h-16.3l-6.47-27.17c-2.08-8.33-4.39-19.89-6.24-30.52h-.23c-.46,11-.81,22.55-1.16,31.33l-1.27,28H404.64l4.86-77.93h28.1l5.09,21c2.2,8.56,4.51,19,6.13,28.44h.35c2.2-9.48,4.74-20.47,7.05-28.67l5.9-20.81h27.4L493.44,163H473.21Z"/><path class="cls-1" d="M32.93,49.43a5,5,0,0,1,2.29-2.79,11.47,11.47,0,0,1,5.58-1q5.65,0,7.9,1.4T51,53.66v.92H48q0-3.71-1.16-5t-5-1.32h-1q-4.31,0-6.14,1.2t-1.84,5.21v11.1H30V45.93h3v3.5ZM70.8,63.07q.68.13,2.15.25t3.5.13h1.6q2.2,0,3.46-.13a7.51,7.51,0,0,0,2.28-.57,3.24,3.24,0,0,0,1.48-1.16,3.77,3.77,0,0,0,.55-1.77H89q0,3.93-3.15,5.09a23.87,23.87,0,0,1-8.13,1.16,48.45,48.45,0,0,1-8.06-.49A6.87,6.87,0,0,1,65.33,63q-1.67-2.13-1.67-7.07,0-6.12,2.34-8.21t8.49-2.09h2a36.33,36.33,0,0,1,7.19.53,6,6,0,0,1,3.84,2.61Q89,50.81,89,55.33v1H66.62a10.45,10.45,0,0,0,.8,4.54,4.51,4.51,0,0,0,3.38,2.17Zm6.88-14.86H75.36a30.69,30.69,0,0,0-4.35.27,5.63,5.63,0,0,0-2.85,1.08,3.81,3.81,0,0,0-1.25,1.85,8.87,8.87,0,0,0-.3,2.41H85.83a9.81,9.81,0,0,0-.25-2.34,3.4,3.4,0,0,0-1-1.72,5.62,5.62,0,0,0-2.39-1.13,18.73,18.73,0,0,0-4.5-.42Zm51.68,17.57h-3v-3a4.55,4.55,0,0,1-2.85,2.74,16.25,16.25,0,0,1-4.92.63h-2.74q-6.88,0-9.54-1.72t-2.66-8.27q0-6.18,2.22-8.31t8.38-2.14h2.32q3.42,0,4.71.12a8.53,8.53,0,0,1,2.26.49,4.7,4.7,0,0,1,1.65,1,7,7,0,0,1,1.18,1.56V37.35h3V65.77Zm-12.77-2.28q5.67,0,7.74-1.25T126.4,56a11.81,11.81,0,0,0-.87-5.17,3.76,3.76,0,0,0-3-2c-1.41-.21-2.65-.34-3.7-.4s-2.08-.08-3.07-.08q-5.37,0-7.15,1.27t-1.78,6.64q0,3.85,1.16,5.5c.78,1.1,2.38,1.65,4.81,1.65l3.77.13Zm35.1-.42q.68.13,2.15.25t3.5.13h1.6q2.2,0,3.46-.13a7.51,7.51,0,0,0,2.28-.57,3.24,3.24,0,0,0,1.48-1.16,3.77,3.77,0,0,0,.55-1.77h3.12q0,3.93-3.15,5.09a23.87,23.87,0,0,1-8.13,1.16,48.45,48.45,0,0,1-8.06-.49A6.87,6.87,0,0,1,146.22,63q-1.67-2.13-1.67-7.07,0-6.12,2.34-8.21t8.49-2.09h2a36.34,36.34,0,0,1,7.19.53,6,6,0,0,1,3.84,2.61q1.41,2.08,1.41,6.61v1H147.51a10.45,10.45,0,0,0,.8,4.54,4.51,4.51,0,0,0,3.38,2.17Zm6.88-14.86h-2.32a30.69,30.69,0,0,0-4.35.27A5.62,5.62,0,0,0,149,49.56a3.81,3.81,0,0,0-1.25,1.85,8.87,8.87,0,0,0-.3,2.41h19.21a9.81,9.81,0,0,0-.25-2.34,3.4,3.4,0,0,0-1-1.72,5.62,5.62,0,0,0-2.39-1.13,18.73,18.73,0,0,0-4.5-.42ZM220.8,65.77h-3v-3A4.55,4.55,0,0,1,215,65.48a16.25,16.25,0,0,1-4.92.63h-2.74q-6.88,0-9.54-1.72t-2.66-8.27q0-6.18,2.22-8.31t8.38-2.14H208q3.42,0,4.71.12a8.53,8.53,0,0,1,2.26.49,4.71,4.71,0,0,1,1.65,1,7,7,0,0,1,1.18,1.56V37.35h3V65.77ZM208,63.49q5.67,0,7.74-1.25T217.85,56a11.81,11.81,0,0,0-.87-5.17,3.76,3.76,0,0,0-3-2c-1.41-.21-2.65-.34-3.7-.4s-2.08-.08-3.07-.08q-5.37,0-7.15,1.27t-1.78,6.64q0,3.85,1.16,5.5c.78,1.1,2.38,1.65,4.81,1.65l3.77.13Zm35.1-.42q.68.13,2.15.25t3.5.13h1.6q2.2,0,3.46-.13a7.52,7.52,0,0,0,2.28-.57,3.24,3.24,0,0,0,1.48-1.16,3.77,3.77,0,0,0,.55-1.77h3.12q0,3.93-3.15,5.09A23.86,23.86,0,0,1,250,66.07a48.45,48.45,0,0,1-8.06-.49A6.87,6.87,0,0,1,237.66,63Q236,60.83,236,55.89q0-6.12,2.34-8.21t8.49-2.09h2a36.33,36.33,0,0,1,7.19.53,6,6,0,0,1,3.84,2.61q1.41,2.08,1.41,6.61v1H239a10.45,10.45,0,0,0,.8,4.54,4.51,4.51,0,0,0,3.38,2.17ZM250,48.21h-2.32a30.69,30.69,0,0,0-4.35.27,5.63,5.63,0,0,0-2.85,1.08,3.82,3.82,0,0,0-1.25,1.85,8.88,8.88,0,0,0-.3,2.41h19.21a9.81,9.81,0,0,0-.25-2.34,3.4,3.4,0,0,0-1-1.72,5.62,5.62,0,0,0-2.39-1.13,18.73,18.73,0,0,0-4.5-.42Zm43.65,14.86q.68.13,2.15.25t3.5.13h1.61q2.2,0,3.46-.13a7.51,7.51,0,0,0,2.28-.57,3.23,3.23,0,0,0,1.48-1.16,3.76,3.76,0,0,0,.55-1.77h3.12q0,3.93-3.15,5.09a23.87,23.87,0,0,1-8.13,1.16,48.44,48.44,0,0,1-8.06-.49A6.87,6.87,0,0,1,288.2,63q-1.67-2.13-1.67-7.07,0-6.12,2.34-8.21t8.49-2.09h2a36.33,36.33,0,0,1,7.19.53,6,6,0,0,1,3.84,2.61q1.41,2.08,1.41,6.61v1H289.49a10.44,10.44,0,0,0,.8,4.54,4.51,4.51,0,0,0,3.38,2.17Zm6.88-14.86h-2.32a30.69,30.69,0,0,0-4.35.27A5.63,5.63,0,0,0,291,49.56a3.81,3.81,0,0,0-1.25,1.85,8.87,8.87,0,0,0-.3,2.41H308.7a9.81,9.81,0,0,0-.25-2.34,3.4,3.4,0,0,0-1-1.72A5.62,5.62,0,0,0,305,48.63a18.74,18.74,0,0,0-4.5-.42ZM330.06,50a5.26,5.26,0,0,1,3.25-3.63,19.77,19.77,0,0,1,6.08-.76h.38A33.55,33.55,0,0,1,345,46a7.66,7.66,0,0,1,3.59,1.52,5.13,5.13,0,0,1,1.9,2.66,14.26,14.26,0,0,1,.4,3.67V65.77h-3V54.12q0-3.72-2-4.79a13.46,13.46,0,0,0-6.16-1.08,18.88,18.88,0,0,0-7.24,1.08q-2.47,1.08-2.47,5.26V65.77h-3V45.93h3V50Zm53.87-1.6-5.83-.17q-1.86,0-3,0a24.73,24.73,0,0,0-2.62.25,5.69,5.69,0,0,0-2.32.78,2.13,2.13,0,0,0-.87,1.92,2.62,2.62,0,0,0,.91,2.39,5.51,5.51,0,0,0,2.85.57l5.11.13h5.53a10.11,10.11,0,0,1,5.45,1.16q1.77,1.16,1.77,4.58,0,3.93-2.09,4.92a15.78,15.78,0,0,1-6.44,1l-5.53.08q-2.53,0-3.86-.06a22.26,22.26,0,0,1-3.29-.46,4.43,4.43,0,0,1-2.89-1.73,6.72,6.72,0,0,1-.93-3.86l0-.89h3l0,.46a3.66,3.66,0,0,0,.84,2.79,5.26,5.26,0,0,0,3,1l5.19.17h1.65a42.39,42.39,0,0,0,4.69-.23,6.13,6.13,0,0,0,2.77-.76,2.28,2.28,0,0,0,.7-1.92,3.37,3.37,0,0,0-1-2.87,5.68,5.68,0,0,0-3.31-.76l-5.36,0h-5.11a9.85,9.85,0,0,1-5.07-1.06q-1.73-1.06-1.73-4.22a5.25,5.25,0,0,1,1.69-4.33,7.24,7.24,0,0,1,4.69-1.37l5.62-.25,3,0q1.48,0,3.34.19,3.08,0,4.37,1.29t1.29,4.33h-3a3.61,3.61,0,0,0-.78-2.26,4.57,4.57,0,0,0-2.47-.78Zm24.82,17.35h-3V45.93h3V65.77Zm0-24.7h-3V37.35h3v3.72Zm18.74,9a5.26,5.26,0,0,1,3.25-3.63,19.76,19.76,0,0,1,6.08-.76h.38a33.55,33.55,0,0,1,5.21.34A7.65,7.65,0,0,1,446,47.49a5.13,5.13,0,0,1,1.9,2.66,14.27,14.27,0,0,1,.4,3.67V65.77h-3V54.12q0-3.72-2-4.79a13.46,13.46,0,0,0-6.16-1.08A18.88,18.88,0,0,0,430,49.32q-2.47,1.08-2.47,5.26V65.77h-3V45.93h3V50Zm48.85-4.35a42,42,0,0,1,7.6.51A6.51,6.51,0,0,1,488,48.75q1.54,2.07,1.54,6.71,0,7.05-2.7,8.83T476.3,66.07q-7,0-9.88-1.73t-2.91-8.28a15.1,15.1,0,0,1,1.35-7.11,5.29,5.29,0,0,1,4.22-2.83q2.87-.36,4.18-.4t3.08,0Zm0,17.82q5.57,0,7.83-1c1.51-.65,2.26-2.55,2.26-5.72a16.9,16.9,0,0,0-.78-5.76,3.49,3.49,0,0,0-3-2.37q-2.22-.3-3.55-.34t-3.15,0h-.89q-4.9,0-6.65,1.31t-1.75,6.25q0,4.73,1.82,6.19t6.71,1.46Z"/><path class="cls-1" d="M0,218.28H386.86q108.93,0,166.14-32.92,52-30,52-80.53,0-45.3-52.31-76.77a184.71,184.71,0,0,0-35.64-16.78C500.9,5.82,483.51,2.51,464.15,0q34,8.71,60,24.28,52.3,31.46,52.31,76.77,0,50.52-52,80.53-57.2,32.92-166.14,32.92H0Z"/><path class="cls-1" d="M0,219.66H386.8c72.62,0,129.88-11.66,168-33.61,34.68-20,51.64-47.53,51.65-81.21-.13-31-17.76-56.48-53.75-78.21a177.19,177.19,0,0,0-34.27-15.94,192.27,192.27,0,0,0-25.68-6.9q59.38,7.7,99.41,31.73,52.3,31.46,52.3,76.77,0,50.53-52,80.53-57.2,32.92-166.13,32.92H0Z"/></g></g></svg>